<?xml version="1.0" standalone="no"?>
<!DOCTYPE svg PUBLIC "-//W3C//DTD SVG 20010904//EN"
 "http://www.w3.org/TR/2001/REC-SVG-20010904/DTD/svg10.dtd">
<svg version="1.0" xmlns="http://www.w3.org/2000/svg"
 width="1453.000000pt" height="1454.000000pt" viewBox="0 0 1453.000000 1454.000000"
 preserveAspectRatio="xMidYMid meet">

<g transform="translate(0.000000,1454.000000) scale(0.100000,-0.100000)"
fill="#E900FF" stroke="none">
<path d="M6865 14519 c-60 -4 -141 -10 -180 -13 -38 -2 -110 -9 -160 -15 -49
-6 -133 -16 -185 -22 -151 -16 -643 -105 -740 -133 -8 -3 -51 -13 -95 -24
-259 -64 -545 -152 -740 -227 -33 -13 -107 -41 -165 -64 -221 -85 -573 -249
-775 -361 -219 -121 -345 -196 -495 -294 -255 -166 -574 -404 -751 -561 -25
-22 -72 -63 -105 -91 -218 -189 -524 -502 -727 -744 -220 -261 -330 -407 -505
-672 -138 -208 -149 -225 -213 -338 -24 -41 -51 -88 -61 -105 -115 -197 -299
-576 -392 -810 -38 -93 -74 -183 -81 -200 -7 -16 -29 -79 -50 -140 -20 -60
-41 -119 -46 -130 -14 -32 -98 -318 -130 -444 -16 -64 -32 -123 -34 -131 -2
-8 -13 -58 -24 -110 -12 -52 -23 -100 -25 -107 -3 -6 -12 -56 -21 -110 -8 -54
-20 -116 -25 -138 -17 -78 -66 -450 -75 -569 -3 -43 -9 -128 -15 -190 -12
-144 -12 -797 0 -946 5 -63 12 -149 15 -190 6 -76 18 -182 35 -300 5 -36 14
-103 20 -150 6 -47 15 -101 20 -120 4 -19 14 -66 20 -105 17 -104 68 -343 84
-395 8 -25 20 -70 26 -100 23 -105 133 -459 199 -635 58 -157 114 -299 141
-360 10 -22 32 -74 50 -115 70 -162 209 -434 345 -675 82 -144 224 -366 344
-535 17 -25 39 -56 49 -70 141 -207 461 -588 701 -833 129 -133 387 -369 546
-501 162 -134 143 -119 261 -207 54 -41 106 -79 114 -86 56 -45 318 -219 470
-313 511 -315 1140 -597 1695 -759 172 -50 285 -81 352 -94 39 -8 76 -17 81
-21 23 -14 547 -109 697 -126 55 -6 136 -16 180 -21 44 -6 105 -13 135 -15
276 -20 373 -24 635 -24 257 0 400 6 635 24 25 2 86 9 135 15 50 6 131 16 180
22 109 12 295 43 425 68 52 11 124 25 160 32 36 6 133 30 215 51 83 22 177 46
210 55 33 8 69 18 80 23 11 4 38 13 60 19 220 60 626 213 893 336 127 58 417
204 497 250 89 51 220 126 244 140 93 55 241 152 416 273 222 153 490 368 724
581 211 192 593 592 696 730 10 14 49 62 85 106 288 352 597 837 830 1305 72
145 250 551 250 570 0 6 4 18 10 28 47 82 237 689 281 897 4 22 13 55 18 73 5
18 10 36 11 40 0 4 4 23 9 42 5 19 14 67 21 105 6 39 20 115 30 170 28 152 58
358 69 480 6 61 16 171 23 245 20 211 17 899 -5 1135 -29 318 -55 520 -92 712
-9 43 -20 105 -26 138 -15 80 -118 505 -128 530 -5 11 -14 40 -21 65 -27 104
-161 501 -190 565 -5 11 -29 70 -54 130 -96 239 -175 407 -312 665 -81 154
-94 177 -157 280 -26 41 -54 89 -63 105 -24 43 -156 243 -238 360 -354 507
-831 1027 -1280 1396 -16 13 -46 38 -65 54 -58 49 -132 107 -196 155 -33 25
-62 47 -65 50 -3 3 -16 13 -30 23 -14 9 -56 39 -95 67 -38 28 -133 92 -210
143 -123 82 -171 113 -318 201 -335 201 -885 459 -1212 568 -33 11 -69 23 -80
28 -24 10 -211 71 -275 89 -25 8 -56 17 -70 22 -137 47 -577 147 -855 194
-123 21 -428 58 -575 70 -286 24 -762 31 -995 14z m622 -2231 c-3 -8 -6 -5 -6
6 -1 11 2 17 5 13 3 -3 4 -12 1 -19z m-353 -37 c-6 -48 -6 -48 22 -47 21 1 32
8 41 26 l11 25 -1 -29 c-2 -27 1 -30 31 -32 26 -1 32 2 33 20 1 18 2 18 6 3 3
-14 12 -18 28 -14 21 3 24 0 27 -27 2 -25 8 -32 31 -34 24 -3 27 0 28 25 1 15
5 39 9 53 7 20 9 15 7 -22 -1 -63 16 -66 25 -5 8 56 18 74 18 32 0 -35 10 -27
20 17 7 29 8 26 9 -24 1 -36 5 -58 12 -58 8 0 8 -4 -1 -14 -17 -22 45 -31 134
-20 39 4 112 8 161 7 56 0 93 4 97 11 4 6 8 28 8 49 0 20 5 37 10 37 6 0 10
-4 10 -10 0 -5 9 -10 21 -10 17 0 20 -4 15 -23 -6 -27 3 -67 16 -67 15 0 40
-29 34 -39 -3 -5 1 -11 9 -15 8 -3 15 -13 15 -21 0 -37 20 0 21 38 l1 42 10
-53 c6 -33 14 -52 21 -49 7 2 11 14 10 26 -2 11 2 21 7 21 6 0 10 -3 10 -7 0
-5 5 -48 10 -97 9 -90 22 -115 47 -94 8 6 15 9 18 7 2 -2 5 -53 6 -113 1 -60
9 -127 16 -149 26 -74 62 -224 68 -283 4 -40 13 -64 26 -76 15 -13 19 -29 19
-84 0 -62 14 -167 28 -204 3 -8 8 3 12 25 l5 40 8 -40 c4 -22 7 -70 7 -106 0
-62 8 -126 30 -229 5 -25 12 -65 14 -90 10 -87 27 -226 36 -290 5 -36 15 -117
21 -180 6 -63 15 -146 19 -185 6 -46 5 -72 -1 -76 -7 -4 -8 -24 -3 -55 7 -45
8 -47 14 -19 6 27 7 24 14 -23 4 -29 8 -81 8 -115 0 -34 6 -92 13 -129 7 -39
9 -68 3 -70 -5 -2 -2 -22 6 -45 8 -23 12 -51 9 -62 -3 -12 0 -27 6 -35 7 -8
13 -64 16 -132 2 -64 9 -120 14 -123 9 -6 19 -94 21 -186 0 -26 3 -35 9 -26 6
9 11 10 15 2 10 -16 27 -191 20 -203 -4 -6 1 -33 10 -62 14 -47 46 -227 46
-262 0 -8 -4 -13 -9 -10 -4 3 -6 -6 -3 -19 2 -14 7 -23 11 -21 4 3 6 -12 4
-32 -2 -36 -2 -36 6 -7 8 28 9 27 10 -15 1 -25 10 -94 20 -155 10 -60 26 -164
35 -230 9 -66 25 -174 36 -240 35 -228 40 -264 40 -317 0 -30 4 -58 9 -63 5
-6 12 -41 16 -80 4 -38 10 -89 15 -112 8 -47 4 -55 -10 -20 -8 21 -9 20 -9 -7
-1 -16 3 -57 9 -90 5 -34 12 -88 16 -121 5 -44 9 -55 15 -40 6 16 8 11 9 -20
2 -22 2 -44 0 -50 -2 -11 18 -161 31 -229 5 -26 12 -76 15 -109 4 -34 12 -82
20 -107 8 -25 14 -68 14 -97 0 -28 9 -89 19 -135 25 -108 35 -188 20 -168 -13
19 -5 -71 21 -260 11 -74 22 -157 25 -185 5 -49 17 -136 35 -265 18 -123 59
-517 91 -860 5 -58 11 -112 14 -120 2 -8 5 -46 6 -85 0 -38 5 -124 10 -190 4
-66 10 -158 13 -205 8 -147 18 -204 40 -246 16 -29 21 -51 17 -80 l-5 -39 -12
40 -12 40 -1 -42 c-1 -51 25 -281 43 -375 10 -54 11 -87 3 -144 -8 -55 -8 -96
2 -161 9 -67 9 -88 0 -94 -8 -4 -10 -22 -6 -50 l6 -44 -19 40 c-10 22 -19 33
-20 25 0 -8 -8 2 -18 24 l-17 38 -19 -38 c-11 -22 -18 -43 -17 -49 11 -38 17
-105 10 -105 -5 0 -9 8 -10 18 0 9 -5 2 -10 -15 -5 -18 -14 -33 -20 -33 -7 0
-9 -10 -5 -26 12 -46 -17 -21 -31 27 l-12 44 5 -61 c4 -39 2 -64 -5 -68 -7 -5
-11 3 -11 21 0 40 -11 74 -21 67 -5 -3 -9 2 -9 12 0 13 -3 14 -15 4 -12 -10
-15 -10 -17 1 0 8 -4 -8 -8 -36 l-7 -50 -1 46 c-1 28 -8 52 -17 59 -11 9 -15
9 -15 1 0 -7 -4 -10 -9 -7 -14 9 -21 -20 -16 -67 4 -30 2 -36 -4 -22 -5 11
-12 51 -16 88 -6 53 -12 70 -28 78 -19 11 -19 9 -13 -37 9 -65 15 -84 27 -84
5 0 9 -4 9 -10 0 -19 -20 -10 -47 20 -14 17 -34 30 -43 30 -37 0 -69 -69 -71
-154 l-1 -51 -18 79 c-10 43 -23 81 -28 85 -5 3 -13 21 -17 38 -8 38 -19 47
-60 48 -27 0 -33 7 -60 62 -16 35 -33 63 -37 63 -5 0 -8 -28 -8 -62 -1 -106
-18 -45 -39 138 -11 93 -24 183 -29 199 -10 29 -18 93 -43 315 -14 131 -58
371 -70 387 -6 6 -16 78 -25 160 -15 152 -53 519 -80 768 -8 77 -19 178 -24
224 -5 46 -7 88 -4 93 3 4 0 34 -5 65 -13 68 -45 290 -61 418 -7 50 -16 101
-20 115 -5 14 -11 45 -14 70 -9 69 -26 189 -36 245 -5 28 -14 93 -20 145 -7
52 -20 158 -30 235 -10 77 -24 183 -30 235 -6 52 -16 124 -22 160 -5 36 -11
79 -14 95 -5 41 -21 148 -44 290 -24 150 -40 283 -39 316 1 25 16 -59 39 -211
7 -47 16 -92 21 -100 6 -10 7 -5 4 15 -19 124 -36 258 -32 262 3 2 11 -30 18
-71 6 -42 14 -74 17 -71 3 2 -3 61 -14 130 -11 74 -21 119 -25 108 -5 -13 -9
-6 -14 25 -4 24 -14 50 -22 58 -16 16 -43 19 -43 5 0 -12 -82 -12 -96 0 -9 8
-11 4 -7 -13 3 -17 2 -19 -5 -9 -5 7 -15 10 -22 6 -20 -13 -204 -25 -215 -14
-7 7 0 8 19 3 21 -5 27 -4 22 5 -9 14 -86 14 -123 0 -35 -14 -418 -12 -444 1
-10 6 -33 10 -53 10 -19 0 -37 6 -40 13 -3 6 -3 -3 0 -22 3 -18 2 -36 -4 -40
-5 -3 -11 -32 -14 -63 -3 -32 -1 -55 4 -52 10 7 6 -25 -22 -161 -10 -49 -21
-108 -24 -130 -4 -22 -15 -87 -25 -145 -11 -58 -24 -148 -31 -200 -6 -52 -15
-113 -20 -135 -5 -22 -13 -78 -19 -125 -14 -111 -41 -300 -46 -325 -3 -11 -7
-44 -10 -73 -9 -91 -17 -132 -26 -126 -5 3 -9 -4 -9 -15 0 -12 4 -21 9 -21 5
0 7 -9 4 -20 -3 -11 -10 -20 -15 -20 -5 0 -7 -4 -3 -10 3 -5 1 -44 -5 -87 -5
-43 -15 -116 -21 -163 -6 -47 -14 -89 -19 -94 -5 -4 -6 -32 -3 -61 3 -30 0
-91 -6 -137 -6 -46 -16 -117 -22 -158 -5 -41 -14 -97 -19 -125 -5 -27 -16 -93
-25 -145 -8 -52 -19 -117 -25 -145 -11 -58 -57 -330 -72 -425 -5 -36 -14 -90
-19 -120 -5 -30 -12 -98 -15 -150 -4 -52 -10 -97 -14 -100 -13 -9 -42 -174
-46 -265 -3 -49 -6 -152 -7 -227 -1 -76 -5 -138 -8 -138 -4 0 -7 6 -6 12 0 7
-1 31 -2 53 l-2 40 -14 -45 c-8 -25 -17 -62 -20 -83 -3 -21 -10 -35 -15 -32
-10 6 -25 -103 -23 -165 2 -40 1 -41 -6 -15 -5 17 -10 53 -11 80 -2 50 -2 50
-11 15 -4 -19 -8 -67 -7 -105 1 -78 -19 -148 -39 -141 -12 5 -18 -11 -15 -44
2 -24 -19 -124 -29 -136 -5 -6 -7 -19 -3 -28 4 -10 1 -16 -9 -16 -9 0 -24 -27
-41 -73 -15 -41 -35 -78 -47 -85 -32 -20 -33 -8 -5 36 13 22 28 56 31 76 4 20
11 36 15 36 10 0 52 109 48 122 -2 5 -12 -13 -22 -42 -10 -28 -31 -64 -47 -80
-16 -15 -29 -36 -29 -44 0 -9 -5 -16 -11 -16 -15 0 -3 48 16 67 18 17 19 23 5
23 -6 0 -16 -11 -22 -25 -13 -28 -38 -34 -38 -8 0 14 -2 14 -20 -2 -11 -10
-20 -27 -20 -37 0 -10 -8 -22 -17 -25 -10 -4 -21 -11 -25 -17 -4 -6 -8 0 -8
14 -1 25 -1 24 -30 -10 l-30 -34 0 28 c0 21 -4 27 -15 22 -10 -3 -17 3 -21 21
-6 24 -8 24 -17 7 -6 -11 -17 -25 -24 -33 -8 -7 -17 -27 -20 -43 -3 -16 -8
-26 -11 -23 -3 3 -12 -5 -19 -17 l-12 -23 -1 23 c0 22 -2 21 -51 -15 -29 -21
-60 -54 -70 -72 -30 -55 -43 -62 -35 -18 8 41 1 49 -15 14 -9 -20 -9 -20 -2 3
4 14 6 52 6 85 -1 39 2 53 7 40 8 -20 8 -20 16 -1 5 13 3 21 -4 24 -8 2 -12
28 -12 72 0 70 -14 101 -26 55 -3 -14 -3 -37 0 -51 5 -20 3 -27 -14 -31 -13
-3 -20 -14 -20 -29 0 -34 -20 -40 -22 -7 0 15 -1 35 0 43 0 10 -6 7 -19 -9
-11 -13 -22 -21 -25 -18 -3 3 4 43 15 89 12 48 17 84 12 86 -6 2 -7 10 -4 19
4 10 2 14 -5 9 -6 -3 -14 -1 -18 5 -4 8 -9 7 -15 -2 -19 -30 -8 29 20 109 28
79 30 93 32 258 1 105 6 174 12 174 6 0 8 26 4 68 -5 62 1 112 23 202 5 19 11
62 14 95 4 48 3 56 -7 40 -6 -11 -14 -36 -19 -55 -4 -21 -5 -5 -2 43 3 43 9
89 14 102 5 12 11 48 14 79 6 63 8 77 35 241 38 226 51 300 66 380 8 44 17 98
20 120 12 89 36 222 46 250 6 17 13 66 15 109 2 44 8 84 14 90 5 5 10 33 10
60 0 28 7 76 15 106 8 30 15 72 15 93 0 20 4 37 9 37 10 0 18 30 25 90 2 19 7
60 11 90 3 30 7 95 9 144 2 48 8 91 13 95 13 8 36 106 30 123 -3 7 -6 3 -6 -9
-1 -13 -5 -23 -10 -23 -9 0 -8 10 10 120 7 41 17 78 21 81 5 3 9 43 9 87 0 45
7 121 16 169 9 49 16 112 17 141 0 29 6 56 11 60 6 4 11 34 13 67 1 33 7 84
12 114 6 30 10 71 10 90 0 22 3 31 8 23 6 -9 12 -6 20 12 10 22 9 24 -5 19
-13 -5 -15 -1 -8 23 4 16 7 41 7 57 1 15 5 27 10 27 4 0 6 11 2 25 -4 15 -2
25 5 25 6 0 8 12 5 33 -4 24 -3 28 5 17 13 -18 14 -5 2 18 -5 11 -2 60 10 132
10 63 23 144 28 180 5 36 14 83 19 105 20 80 42 199 38 202 -2 2 -11 -22 -20
-54 -9 -35 -14 -44 -11 -23 8 72 27 150 35 145 5 -3 9 3 8 12 0 10 7 59 16
108 17 98 20 149 6 105 -7 -23 -8 -22 -8 10 -1 36 15 127 17 101 2 -33 13 3
27 90 8 52 14 133 14 180 0 65 3 88 14 92 10 4 15 34 19 104 4 54 11 123 17
153 5 30 11 62 11 70 4 54 22 167 29 175 4 6 11 33 15 60 11 91 35 249 45 300
5 28 14 88 20 135 6 47 20 139 30 205 10 66 24 161 30 210 6 50 15 108 20 130
5 22 14 81 20 130 10 75 34 221 55 325 22 114 28 139 36 170 5 19 18 82 29
140 11 58 24 121 29 140 5 19 14 69 21 110 7 41 16 86 21 100 4 14 11 45 14
70 3 25 8 52 10 60 13 45 23 155 15 174 -5 14 -3 28 6 41 14 18 14 18 15 -1 2
-76 65 225 85 411 4 33 10 65 14 70 5 6 12 28 16 50 5 30 9 35 14 21 8 -24 40
128 40 190 0 34 3 42 18 40 12 -1 18 7 20 27 2 15 7 27 12 27 9 0 14 -14 25
-68 7 -32 8 -33 26 -16 11 10 17 24 15 31 -7 18 4 43 19 43 8 0 15 21 20 58 5
39 10 51 15 38 6 -17 7 -18 13 -3 8 22 47 22 47 1 0 -13 3 -14 15 -4 8 7 13
16 10 20 -3 5 -1 11 5 15 6 4 8 11 5 16 -4 5 -3 14 0 19 13 21 16 9 9 -39z
m633 -47 c-3 -3 -12 -4 -19 -1 -8 3 -5 6 6 6 11 1 17 -2 13 -5z m-101 -13
c-14 -5 -16 -10 -8 -15 7 -4 17 -4 23 0 7 4 10 1 7 -7 -7 -20 -38 -24 -38 -4
0 13 -7 15 -37 9 -21 -4 -46 -11 -55 -15 -9 -5 -25 -9 -34 -9 -14 0 -15 3 -6
12 12 12 110 36 147 36 19 1 19 0 1 -7z m-86 -51 c0 -5 -4 -10 -10 -10 -5 0
-10 5 -10 10 0 6 5 10 10 10 6 0 10 -4 10 -10z m568 -148 c2 -7 -2 -10 -12 -6
-9 3 -16 11 -16 16 0 13 23 5 28 -10z m-1451 -644 c-3 -8 -6 -5 -6 6 -1 11 2
17 5 13 3 -3 4 -12 1 -19z m260 -4140 c-3 -8 -6 -5 -6 6 -1 11 2 17 5 13 3 -3
4 -12 1 -19z m982 -18 c0 -10 -3 -8 -9 5 -12 27 -12 43 0 25 5 -8 9 -22 9 -30z
m-1032 -342 c-3 -7 -5 -2 -5 12 0 14 2 19 5 13 2 -7 2 -19 0 -25z m-22 -176
c-9 -70 -18 -149 -21 -177 -2 -27 -13 -115 -24 -195 -11 -80 -24 -183 -30
-230 -6 -47 -15 -110 -20 -140 -5 -30 -14 -98 -20 -150 -6 -52 -18 -138 -26
-190 -12 -86 -36 -266 -48 -364 -3 -21 -7 -41 -10 -44 -11 -10 -6 67 8 145 13
68 23 139 41 283 l5 35 -10 -30 c-5 -16 -12 -46 -15 -65 -3 -19 -12 -57 -20
-85 l-14 -50 3 45 c5 74 38 222 47 208 11 -18 15 -2 29 132 7 63 20 174 30
245 11 72 22 159 25 195 4 36 11 87 16 114 11 57 5 73 -10 25 l-9 -34 0 35 c0
19 4 49 8 65 l8 30 1 -29 c3 -69 17 7 41 219 16 136 22 174 27 152 3 -10 -3
-75 -12 -145z m-15 38 c0 -5 -4 -10 -10 -10 -5 0 -10 5 -10 10 0 6 5 10 10 10
6 0 10 -4 10 -10z m-13 -42 c-3 -8 -6 -5 -6 6 -1 11 2 17 5 13 3 -3 4 -12 1
-19z m-7 -48 c0 -16 -4 -30 -8 -30 -5 0 -7 14 -4 30 2 17 6 30 8 30 2 0 4 -13
4 -30z m1246 -755 c-8 -20 -26 47 -25 93 l1 47 14 -65 c8 -35 12 -69 10 -75z
m4 -176 c17 -34 26 -90 21 -134 -2 -11 -9 2 -16 29 -8 28 -11 54 -9 58 3 5 1
14 -4 21 -6 7 -13 30 -16 52 -3 22 -3 33 0 25 3 -8 14 -31 24 -51z m47 -261
c-3 -8 -6 -5 -6 6 -1 11 2 17 5 13 3 -3 4 -12 1 -19z m-6 -58 l2 -35 7 35 7
35 2 -33 c1 -39 18 -159 31 -222 20 -100 21 -110 13 -110 -5 0 -15 24 -21 53
-41 172 -73 377 -53 332 5 -11 11 -36 12 -55z m74 -399 c4 -31 15 -117 26
-191 11 -74 24 -179 29 -235 6 -55 12 -122 15 -150 4 -44 4 -46 -4 -15 -5 19
-14 80 -20 135 -6 55 -17 134 -25 175 -13 69 -33 198 -40 260 -2 14 -7 37 -10
51 -6 19 -4 26 8 26 11 0 17 -16 21 -56z m-1570 -98 c-3 -16 -12 -82 -20 -147
-8 -66 -17 -121 -20 -124 -7 -7 -6 5 5 116 16 154 21 182 30 182 5 0 7 -12 5
-27z m1642 -575 c-3 -7 -5 -2 -5 12 0 14 2 19 5 13 2 -7 2 -19 0 -25z m32
-163 c19 -165 51 -464 51 -477 0 -6 -2 -9 -4 -7 -5 5 -33 231 -56 439 -6 58
-13 121 -16 140 -3 23 -2 30 4 20 5 -8 14 -60 21 -115z m68 -687 c-3 -8 -6 -5
-6 6 -1 11 2 17 5 13 3 -3 4 -12 1 -19z m20 -80 c10 -49 11 -50 13 -18 l2 35
9 -40 c4 -22 8 -87 7 -145 l0 -105 -14 85 c-8 47 -19 110 -25 140 -6 30 -13
65 -15 78 -2 12 0 22 4 22 5 0 14 -24 19 -52z m-2087 -563 c-14 -36 -22 -28
-14 14 4 19 10 29 16 23 5 -5 4 -20 -2 -37z m-63 -17 c-3 -8 -6 -5 -6 6 -1 11
2 17 5 13 3 -3 4 -12 1 -19z m-31 -174 c-4 -13 -11 -24 -16 -24 -9 0 -6 36 8
90 6 23 6 22 10 -9 2 -19 1 -44 -2 -57z m-816 -145 c0 -6 -4 -7 -10 -4 -5 3
-10 11 -10 16 0 6 5 7 10 4 6 -3 10 -11 10 -16z m3457 -211 c-3 -8 -6 -5 -6 6
-1 11 2 17 5 13 3 -3 4 -12 1 -19z m-30 -20 c-3 -8 -6 -5 -6 6 -1 11 2 17 5
13 3 -3 4 -12 1 -19z"/>
<path d="M7910 12190 c0 -5 5 -10 11 -10 5 0 7 5 4 10 -3 6 -8 10 -11 10 -2 0
-4 -4 -4 -10z"/>
<path d="M7272 12160 c-20 -22 -21 -25 -7 -28 22 -5 38 11 33 34 -3 17 -5 16
-26 -6z"/>
<path d="M7205 12160 c3 -5 8 -10 11 -10 2 0 4 5 4 10 0 6 -5 10 -11 10 -5 0
-7 -4 -4 -10z"/>
<path d="M8010 11958 c0 -29 15 -45 25 -28 3 5 -1 20 -9 32 l-16 22 0 -26z"/>
<path d="M7501 10848 c-1 -16 4 -28 9 -28 12 0 12 8 0 35 -8 18 -9 17 -9 -7z"/>
<path d="M7491 10733 c0 -6 -4 -20 -7 -30 -5 -14 -4 -15 5 -7 7 7 11 20 8 30
-3 11 -5 14 -6 7z"/>
<path d="M7465 10590 c-4 -23 -5 -43 -2 -46 2 -3 7 14 11 37 4 23 5 44 2 46
-2 2 -7 -14 -11 -37z"/>
<path d="M7492 10560 c-25 -150 -51 -307 -66 -395 -9 -49 -20 -121 -26 -160
-5 -38 -17 -115 -25 -170 -16 -100 -31 -202 -62 -414 -9 -64 -19 -107 -23
-100 -5 8 0 64 10 124 16 102 35 231 46 315 2 19 9 53 13 75 18 78 39 235 66
495 4 43 4 44 -5 10 -5 -19 -19 -89 -30 -155 -11 -66 -25 -136 -30 -155 -5
-19 -14 -71 -20 -115 -7 -44 -20 -127 -30 -185 -10 -58 -23 -145 -30 -195 -6
-49 -16 -106 -20 -125 -9 -35 -27 -146 -34 -210 -3 -19 -9 -73 -15 -120 -5
-47 -15 -134 -21 -195 -13 -129 -26 -224 -42 -319 -9 -54 -9 -71 0 -74 15 -5
16 -100 2 -122 -7 -11 -10 2 -11 45 l-1 60 -9 -45 c-5 -25 -14 -74 -20 -110
-6 -36 -13 -75 -16 -87 -5 -22 -2 -23 56 -23 34 0 61 -4 61 -10 0 -6 -27 -10
-60 -10 -44 0 -60 -4 -60 -14 0 -19 56 -26 131 -15 35 5 132 13 214 19 83 5
163 13 179 16 19 4 26 3 22 -5 -4 -6 -26 -11 -49 -12 -23 0 -51 -4 -62 -9 -21
-9 3 -11 150 -11 170 0 165 -1 165 21 0 11 -7 20 -15 20 -17 0 -21 16 -5 22 7
2 7 22 1 58 -5 30 -14 96 -21 145 -6 50 -20 146 -30 215 -10 69 -24 163 -30
210 -6 47 -15 108 -20 135 -9 50 -32 237 -32 265 0 8 -5 38 -10 65 -5 28 -12
64 -14 80 -2 17 -8 66 -14 110 -13 104 -46 382 -59 515 -7 58 -16 137 -21 175
-5 39 -14 113 -21 165 -6 52 -17 103 -24 115 -8 11 -16 38 -20 60 l-6 40 15
-30 c18 -38 19 -24 3 40 l-13 49 -12 -74z m105 -1075 l0 -50 -7 60 c-4 33 -8
85 -7 115 l0 55 7 -65 c4 -36 8 -87 7 -115z m10 -92 c-3 -10 -5 -4 -5 12 0 17
2 24 5 18 2 -7 2 -21 0 -30z m-332 -225 c-5 -86 -31 -228 -42 -228 -2 0 -2 12
1 28 3 15 8 52 11 82 3 30 9 84 15 120 5 36 10 71 10 78 0 6 2 12 5 12 3 0 3
-42 0 -92z m419 -284 c9 -60 20 -129 25 -154 l9 -45 2 40 2 40 10 -45 c5 -25
6 -69 3 -98 -5 -51 -2 -78 36 -321 11 -68 18 -126 15 -129 -9 -8 -13 15 -40
213 -15 105 -30 210 -36 235 -5 25 -16 99 -25 165 -9 66 -20 134 -25 150 -4
17 -11 55 -13 85 l-6 55 14 -41 c7 -23 20 -91 29 -150z m40 -69 c5 -33 4 -47
-2 -40 -6 6 -13 39 -16 75 -6 72 6 48 18 -35z m-498 3 c-4 -24 -8 -65 -11 -93
-3 -27 -10 -54 -15 -59 -5 -5 -6 -21 -3 -36 3 -15 1 -30 -5 -34 -15 -9 -13 98
3 144 8 22 14 41 13 43 -3 6 14 77 18 77 3 0 3 -19 0 -42z m101 -603 c0 -10
-8 -15 -20 -13 -30 4 -34 28 -4 28 15 0 24 -6 24 -15z m-62 -5 c-3 -5 -15 -10
-26 -10 -10 0 -19 5 -19 10 0 6 12 10 26 10 14 0 23 -4 19 -10z m112 -6 c-3
-3 -12 -4 -19 -1 -8 3 -5 6 6 6 11 1 17 -2 13 -5z m370 0 c-3 -3 -12 -4 -19
-1 -8 3 -5 6 6 6 11 1 17 -2 13 -5z m-6 -37 c-10 -9 -11 -8 -5 6 3 10 9 15 12
12 3 -3 0 -11 -7 -18z m-34 7 c-3 -3 -12 -4 -19 -1 -8 3 -5 6 6 6 11 1 17 -2
13 -5z"/>
<path d="M7541 10534 c0 -11 3 -14 6 -6 3 7 2 16 -1 19 -3 4 -6 -2 -5 -13z"/>
<path d="M7541 10494 c0 -11 3 -14 6 -6 3 7 2 16 -1 19 -3 4 -6 -2 -5 -13z"/>
<path d="M7442 10465 c0 -16 2 -22 5 -12 2 9 2 23 0 30 -3 6 -5 -1 -5 -18z"/>
<path d="M7556 10443 c-4 -15 -2 -42 3 -60 5 -17 7 -34 4 -36 -2 -3 0 -8 5
-11 11 -6 10 119 0 129 -3 4 -9 -6 -12 -22z"/>
<path d="M7431 10404 c0 -11 3 -14 6 -6 3 7 2 16 -1 19 -3 4 -6 -2 -5 -13z"/>
<path d="M8501 9714 c0 -11 3 -14 6 -6 3 7 2 16 -1 19 -3 4 -6 -2 -5 -13z"/>
<path d="M7771 8694 c0 -11 3 -14 6 -6 3 7 2 16 -1 19 -3 4 -6 -2 -5 -13z"/>
<path d="M7782 8650 c0 -14 2 -19 5 -12 2 6 2 18 0 25 -3 6 -5 1 -5 -13z"/>
<path d="M8737 7965 c3 -27 7 -52 9 -54 7 -8 2 54 -6 79 -6 17 -7 9 -3 -25z"/>
<path d="M8754 7877 c3 -23 1 -25 -12 -15 -13 11 -15 10 -9 -5 4 -10 7 -25 7
-33 0 -9 4 -13 9 -10 5 4 12 0 14 -6 9 -23 5 46 -4 72 -9 25 -9 25 -5 -3z"/>
<path d="M8783 7655 c0 -27 2 -38 4 -22 2 15 2 37 0 50 -2 12 -4 0 -4 -28z"/>
<path d="M8792 7575 c0 -16 2 -22 5 -12 2 9 2 23 0 30 -3 6 -5 -1 -5 -18z"/>
<path d="M8801 7499 c1 -19 5 -47 10 -64 5 -20 6 -9 2 30 -6 66 -14 88 -12 34z"/>
<path d="M8860 7114 c0 -27 5 -56 10 -64 7 -10 8 4 4 45 -8 75 -14 83 -14 19z"/>
<path d="M6886 7063 c-6 -14 -5 -15 5 -6 7 7 10 15 7 18 -3 3 -9 -2 -12 -12z"/>
<path d="M6007 7021 c-4 -18 -7 -45 -6 -60 1 -17 4 -11 10 19 5 25 8 52 6 60
-2 8 -6 0 -10 -19z"/>
<path d="M8001 6804 c0 -11 3 -14 6 -6 3 7 2 16 -1 19 -3 4 -6 -2 -5 -13z"/>
<path d="M5976 6748 c-8 -31 -8 -43 1 -34 8 8 16 56 10 56 -3 0 -7 -10 -11
-22z"/>
<path d="M6421 4024 c0 -11 3 -14 6 -6 3 7 2 16 -1 19 -3 4 -6 -2 -5 -13z"/>
<path d="M6402 3908 c-1 -15 -6 -30 -12 -33 -14 -8 -13 -65 1 -65 6 0 9 6 6
14 -3 8 -1 16 4 18 6 2 9 23 6 48 -2 25 -4 33 -5 18z"/>
<path d="M6382 3730 c0 -19 2 -27 5 -17 2 9 2 25 0 35 -3 9 -5 1 -5 -18z"/>
<path d="M6322 3412 c-15 -49 -26 -240 -12 -197 6 17 13 44 16 60 3 17 9 48
14 70 5 24 5 41 0 43 -5 2 -5 13 0 27 5 14 6 27 1 29 -4 3 -13 -11 -19 -32z"/>
<path d="M6297 3173 c-4 -3 -7 -18 -6 -32 1 -26 1 -25 10 3 9 31 7 41 -4 29z"/>
<path d="M6251 3014 c0 -11 3 -14 6 -6 3 7 2 16 -1 19 -3 4 -6 -2 -5 -13z"/>
<path d="M6006 2504 c-23 -23 -20 -30 4 -9 11 10 20 20 20 22 0 7 -9 2 -24
-13z"/>
</g>
</svg>
